# xmcd CD database generated by RipIT
#
# Track frame offsets:
# 150
# 16691
# 35754
# 53249
# 74493
# 96985
# 115111
# 138000
# 153696
# 182515
#
# Disc length: 2534 seconds
#
# Revision: 0
# Processed by: cddbd v1.5.2PL0 Copyright (c) Steve Scherf et al.
# Submitted via: RipIT 3.6.0 www.suwald.com/ripit/ripit.html on 2008-10-30 at 20:24
#
DISCID=8209e40a
DTITLE=Deicide - Till Death Do Us Part
DYEAR=2008
DGENRE=Death Metal
TTITLE0=The Beginning Of The End
TTITLE1=Till Death Do Us Part
TTITLE2=Hate Of All Hatreds
TTITLE3=In The Eyes Of God
TTITLE4=Worthless Misery
TTITLE5=Severed Ties
TTITLE6=Not As Long As We Both Shall Live
TTITLE7=Angel Of Agony
TTITLE8=Horror In The Halls Of Stone
TTITLE9=The End Of The Beginning
EXTD=
EXTT0=
EXTT1=
EXTT2=
EXTT3=
EXTT4=
EXTT5=
EXTT6=
EXTT7=
EXTT8=
EXTT9=
PLAYORDER=
